<svg xmlns="http://www.w3.org/2000/svg" viewBox="0 0 500 500"><g id="freepik--background-complete--inject-14"><circle cx="424.74" cy="72.07" r="30.14" transform="translate(73.44 321.44) rotate(-45)" style="fill:#ebebeb"></circle><circle cx="426.12" cy="72.75" r="28.76" transform="translate(73.37 322.62) rotate(-45)" style="fill:#dbdbdb"></circle><circle cx="426.12" cy="72.75" r="26.94" transform="translate(-5.35 99.26) rotate(-13.2)" style="fill:#fff"></circle><path d="M452.45,67c-12.27,7.43-32.43,19.62-43.7,26.31a27,27,0,0,1-7.37-9.9L438.66,48.9A27,27,0,0,1,452.45,67Z" style="fill:#ebebeb;opacity:0.5"></path><path d="M453,73.69a26.79,26.79,0,0,1-1.78,8.75l-33.6,15.89a27.18,27.18,0,0,1-4.25-1.82C423.56,90.64,442.11,80,453,73.69Z" style="fill:#ebebeb;opacity:0.5"></path><rect x="425.86" y="47.76" width="0.52" height="4.08" style="fill:#c7c7c7"></rect><rect x="414.38" y="50.83" width="0.52" height="4.08" transform="translate(29.11 214.39) rotate(-30)" style="fill:#c7c7c7"></rect><rect x="405.99" y="59.23" width="0.52" height="4.08" transform="translate(150.04 382.44) rotate(-60)" style="fill:#c7c7c7"></rect><rect x="401.13" y="72.48" width="4.08" height="0.52" style="fill:#c7c7c7"></rect><rect x="404.21" y="83.96" width="4.08" height="0.52" transform="translate(12.35 214.49) rotate(-30.01)" style="fill:#c7c7c7"></rect><rect x="412.6" y="92.36" width="4.08" height="0.52" transform="translate(127.28 405.55) rotate(-60.03)" style="fill:#c7c7c7"></rect><rect x="425.86" y="93.65" width="0.52" height="4.08" style="fill:#c7c7c7"></rect><rect x="437.33" y="90.57" width="0.52" height="4.08" transform="translate(12.32 231.2) rotate(-30)" style="fill:#c7c7c7"></rect><rect x="445.73" y="82.18" width="0.52" height="4.08" transform="matrix(0.5, -0.87, 0.87, 0.5, 150.03, 428.32)" style="fill:#c7c7c7"></rect><rect x="447.02" y="72.48" width="4.08" height="0.52" style="fill:#c7c7c7"></rect><rect x="443.95" y="61.01" width="4.08" height="0.52" transform="translate(29.18 231.37) rotate(-30.02)" style="fill:#c7c7c7"></rect><rect x="435.55" y="52.61" width="4.08" height="0.52" transform="translate(173.16 405.52) rotate(-60.03)" style="fill:#c7c7c7"></rect><polygon points="426.51 49.61 427.39 74.56 424.84 74.53 425.81 49.6 426.51 49.61" style="fill:#c7c7c7"></polygon><polygon points="442.05 64.04 425.26 74.76 424.04 72.51 441.72 63.43 442.05 64.04" style="fill:#a6a6a6"></polygon><path d="M427,72.75a.88.88,0,0,1-1.75,0,.88.88,0,1,1,1.75,0Z" style="fill:#c7c7c7"></path><path d="M448,156.16A21.38,21.38,0,1,1,457.79,133,21.19,21.19,0,0,1,448,156.16Z" style="fill:#ebebeb"></path><path d="M443.49,135.47a6.51,6.51,0,1,1-6.43-6.58A6.51,6.51,0,0,1,443.49,135.47Z" style="fill:#fff"></path><path d="M448,153.48l0,2.68a21.37,21.37,0,0,1-22.49-.28l0-2.67a11.24,11.24,0,1,1,22.48.27Z" style="fill:#fff"></path><path d="M319.34,258.89a14,14,0,1,1,6.43-15.16A14,14,0,0,1,319.34,258.89Z" style="fill:#ebebeb"></path><path d="M316.4,245.34a4.27,4.27,0,1,1-4.21-4.31A4.26,4.26,0,0,1,316.4,245.34Z" style="fill:#fff"></path><path d="M319.36,257.13l0,1.76a14,14,0,0,1-14.73-.18l0-1.75a7.37,7.37,0,1,1,14.73.17Z" style="fill:#fff"></path><rect x="37.79" y="49" width="117.26" height="179.8" style="fill:#dbdbdb"></rect><rect x="44.18" y="56.2" width="49.52" height="79.98" style="fill:#fff"></rect><rect x="99.15" y="56.2" width="49.52" height="79.98" style="fill:#fff"></rect><rect x="44.18" y="141.63" width="49.52" height="79.98" style="fill:#fff"></rect><rect x="99.15" y="141.63" width="49.52" height="79.98" style="fill:#fff"></rect><rect x="37.79" y="49" width="27.77" height="257.24" style="fill:#ebebeb"></rect><polygon points="60.3 61.23 60.52 89.04 60.59 116.86 60.74 172.48 60.6 228.11 60.52 255.92 60.3 283.74 60.09 255.92 60.01 228.11 59.86 172.48 60.01 116.86 60.09 89.04 60.3 61.23" style="fill:#fff"></polygon><polygon points="47.55 67.68 47.76 92.51 47.89 117.35 47.99 167.02 47.89 216.69 47.77 241.52 47.55 266.36 47.33 241.52 47.21 216.69 47.11 167.02 47.21 117.35 47.33 92.51 47.55 67.68" style="fill:#fff"></polygon><polygon points="53.93 73.54 54.14 102.62 54.22 131.7 54.37 189.86 54.22 248.02 54.14 277.1 53.93 306.18 53.71 277.1 53.63 248.02 53.49 189.86 53.63 131.7 53.71 102.62 53.93 73.54" style="fill:#fff"></polygon><polygon points="42.81 62.7 43.02 93.13 43.1 123.57 43.25 184.44 43.1 245.31 43.02 275.75 42.81 306.18 42.59 275.75 42.51 245.31 42.37 184.44 42.51 123.57 42.59 93.13 42.81 62.7" style="fill:#fff"></polygon><rect x="127.28" y="49" width="27.77" height="257.24" transform="translate(282.34 355.24) rotate(180)" style="fill:#ebebeb"></rect><polygon points="132.55 61.23 132.76 89.04 132.84 116.86 132.99 172.48 132.84 228.11 132.76 255.92 132.55 283.74 132.33 255.92 132.26 228.11 132.11 172.48 132.26 116.86 132.34 89.04 132.55 61.23" style="fill:#fff"></polygon><polygon points="145.3 67.68 145.52 92.51 145.64 117.35 145.74 167.02 145.64 216.69 145.52 241.52 145.3 266.36 145.09 241.52 144.96 216.69 144.86 167.02 144.97 117.35 145.09 92.51 145.3 67.68" style="fill:#fff"></polygon><polygon points="138.93 73.54 139.14 102.62 139.22 131.7 139.37 189.86 139.22 248.02 139.14 277.1 138.93 306.18 138.71 277.1 138.63 248.02 138.49 189.86 138.63 131.7 138.71 102.62 138.93 73.54" style="fill:#fff"></polygon><polygon points="150.05 62.7 150.26 93.13 150.34 123.57 150.49 184.44 150.34 245.31 150.26 275.75 150.05 306.18 149.83 275.75 149.75 245.31 149.61 184.44 149.75 123.57 149.83 93.13 150.05 62.7" style="fill:#fff"></polygon></g><g id="freepik--Shadow--inject-14"><ellipse cx="250" cy="435.3" rx="193.27" ry="23.24" style="fill:#ebebeb"></ellipse></g><g id="freepik--Floor--inject-14"><polygon points="37.79 367.36 90.84 367.11 143.9 367.02 250 366.86 356.1 367.02 409.15 367.11 462.21 367.36 409.15 367.6 356.1 367.69 250 367.85 143.9 367.69 90.84 367.6 37.79 367.36" style="fill:#263238"></polygon></g><g id="freepik--Plant--inject-14"><path d="M436.31,273.14c-3.53-3.46-8.1-7.65-13.51-6.15-5.08,1.4-7,6.95-7.94,11.58-1.17,6-2.08,12-3,18s-1.85,12.13-2.73,18.2c-.49,3.43-1,6.85-1.45,10.28l-.72,5.14c-.23,1.68-.51,3.36-.6,5.06,0,.54.81.62.93.1.66-2.86.93-5.83,1.35-8.73s.84-5.84,1.27-8.75q1.28-8.7,2.6-17.38t2.7-17.37c.78-4.91,1.15-11,5.5-14.25a8.44,8.44,0,0,1,8.14-.76c2.86,1.09,5.15,3.14,7.39,5.17C436.28,273.32,436.38,273.21,436.31,273.14Z" style="fill:#263238"></path><path d="M431.47,269.6s-7.22-2.6-10.79,2.68.7,18.68,33.6,26.25a93.08,93.08,0,0,0-7.92-29.74C439.31,253.41,426.74,259.23,431.47,269.6Z" style="fill:#8829E2"></path><path d="M452.39,296.33a28.13,28.13,0,0,0-1.66-2.66c-.55-.85-1.1-1.7-1.67-2.54-.42-.63-.85-1.25-1.28-1.88,0-.15,0-.31.06-.47s.07-.57.11-.85c.08-.62.17-1.24.26-1.85s.19-1.23.31-1.84a9.89,9.89,0,0,1,.43-1.94c0-.09-.13-.14-.14,0a6.76,6.76,0,0,1-.3,1.09c-.07.28-.15.56-.22.83-.16.63-.31,1.25-.45,1.88s-.24,1.16-.34,1.75q-.08.42-.12.84c-.59-.83-1.19-1.66-1.81-2.47-1.74-2.31-3.59-4.52-5.5-6.68,0,0,0,0,0-.06.17-3.46.08-6.88.85-10.28,0-.09-.12-.14-.14-.05a35.55,35.55,0,0,0-1.23,9.84c-.68-.77-1.38-1.53-2.08-2.29q-2.4-2.58-4.9-5.07a.07.07,0,0,0-.11.1c2.77,3,5.41,6.09,8,9.25a57.29,57.29,0,0,0-6,.23c-2.23.16-4.45.45-6.66.75a.08.08,0,0,0,0,.15,64.61,64.61,0,0,1,6.66-.6c2.14-.09,4.28,0,6.42,0q2.08,2.58,4.11,5.2h-.31c-.5,0-1,0-1.51,0-1,0-2,.09-3,.18a46,46,0,0,0-6.07.9.08.08,0,1,0,0,.15c2-.23,4-.42,6.08-.49,1,0,1.94,0,2.91,0h1.51a1.75,1.75,0,0,0,.83-.08q1.33,1.72,2.65,3.46c.7.92,1.38,1.84,2.06,2.78s1.32,2,2.09,2.89C452.32,296.49,452.42,296.41,452.39,296.33Z" style="fill:#263238"></path><path d="M434.62,277.08a21.74,21.74,0,0,0-3.52-.17c-1.17,0-2.35,0-3.52.07a.08.08,0,1,0,0,.15c1.19-.09,2.38-.11,3.57-.09s2.31.13,3.45.1C434.65,277.14,434.66,277.08,434.62,277.08Z" style="fill:#263238"></path><path d="M445,279.73c.13-1.12.27-2.25.51-3.36,0-.1-.13-.14-.14,0-.17,1.11-.39,2.2-.55,3.31-.08.55-.16,1.11-.23,1.66a7.57,7.57,0,0,0-.13,1.57c0,.1.17.11.19,0a9.2,9.2,0,0,0,.17-1.57C444.82,280.8,444.88,280.26,445,279.73Z" style="fill:#263238"></path><path d="M442.78,267.28c-.29,1.09-.57,2.2-.77,3.31-.11.57-.19,1.13-.27,1.7a7.22,7.22,0,0,0-.11,1.67s.07,0,.09,0a9.47,9.47,0,0,0,.26-1.58c.07-.55.15-1.1.25-1.64.2-1.15.4-2.28.69-3.41C442.94,267.24,442.81,267.19,442.78,267.28Z" style="fill:#263238"></path><path d="M399.94,334q-.27-3.11-.6-6.2-.64-6.15-1.48-12.28c-.55-4.07-1.07-8.15-1.73-12.21a30.85,30.85,0,0,0-1.25-5.54,5.26,5.26,0,0,0-3.07-3.46c-3.88-1.34-6.49,2.67-8.05,5.51-.05.09.08.15.13.07.94-1.34,3.52-5.12,6.46-4.94,2,.12,3.56,1.52,4.5,6.44,2.37,12.28,4.5,37.19,4.75,38.82.13.86.74.83.74-.1C400.36,338.07,400.12,336,399.94,334Z" style="fill:#263238"></path><path d="M384.8,298.3s3.39-11.95-4.09-6c-12.45,9.95-12.89,31.57-12.89,31.57S390,311,392.7,302.56C396.8,289.93,384.8,298.3,384.8,298.3Z" style="fill:#8829E2"></path><path d="M389,304.16c-1.73.35-3.49.58-5.25.83l-2.49.35c-.56.08-1.13.14-1.69.2,1.65-2.27,3.31-4.53,4.89-6.85.06-.08-.08-.18-.15-.1a52,52,0,0,0-3.7,4.26c-.32-.92-.65-1.84-1-2.77s-.78-2.13-1.05-3.24c0-.09-.17,0-.14.05.3,1.09.51,2.21.81,3.31s.6,2.11,1,3.14c-.81,1.05-1.59,2.13-2.35,3.22-.38-1.08-.85-2.13-1.18-3.22,0-.1-.18,0-.15,0,.4,1.21.61,2.47,1,3.69-.51.74-1,1.49-1.5,2.23-.9,1.39-1.74,2.79-2.56,4.21a.32.32,0,0,0-.2.33c-1.4,2.42-2.73,4.88-4,7.35,0,.09.09.16.13.07,1.31-2.44,2.78-4.82,4.3-7.16h0a3.26,3.26,0,0,1,.73-.14l.76-.17c.57-.12,1.14-.27,1.71-.41,1.12-.28,2.23-.55,3.37-.74.09,0,.05-.16,0-.15-1.34.26-2.69.41-4,.57-.64.07-1.28.15-1.91.26h-.09q1.18-1.81,2.42-3.6c.8-1.16,1.63-2.32,2.46-3.46.76-.11,1.53-.31,2.29-.46l2.56-.5c1.72-.34,3.42-.72,5.15-1C389.13,304.29,389.09,304.14,389,304.16Z" style="fill:#263238"></path><path d="M375.69,305.34c-.1-.32-.19-.64-.3-.95a17.36,17.36,0,0,1-.5-2c0-.09-.16-.05-.14.05.14.67.3,1.34.45,2a12.47,12.47,0,0,0,.58,2,.13.13,0,0,0,.25-.08C375.94,306,375.8,305.68,375.69,305.34Z" style="fill:#263238"></path><path d="M391.26,301.39c-1,.16-2,.23-3.05.32s-2,.23-3,.38c-.05,0-.05.09,0,.09,1-.07,2-.15,3.05-.28s2-.29,3-.36C391.36,301.54,391.35,301.38,391.26,301.39Z" style="fill:#263238"></path><path d="M416.23,318.88c-.4-8.8-1-17.58-1.84-26.34-.44-4.36-.93-8.72-1.54-13.06a95.32,95.32,0,0,0-2.52-12.65,24.46,24.46,0,0,0-4.21-8.91,9.58,9.58,0,0,0-8.51-3.72c-3.85.48-6.95,2.91-9.63,5.54-3,3-5.76,6.18-8.55,9.35-.7.8-1.4,1.6-2.09,2.41-.07.07,0,.18.1.1,2.73-3.13,5.56-6.17,8.52-9.07,2.73-2.69,5.55-5.63,9.34-6.73a9.56,9.56,0,0,1,5.43-.13,8.57,8.57,0,0,1,3.71,2.35,19.34,19.34,0,0,1,4.19,8.13c2.36,8.09,3.21,16.56,4.09,24.91s1.49,17,1.92,25.51.76,17.14,1.59,25.67c.1,1.06.24,2.11.37,3.16.09.7,1.19.71,1.13,0C417,336.55,416.62,327.72,416.23,318.88Z" style="fill:#263238"></path><path d="M387.5,260.69s5-9.29-.91-12.27S360.79,267.61,355,300c0,0,32.09-14.2,43-28.34S396.5,254.43,387.5,260.69Z" style="fill:#8829E2"></path><path d="M392.21,268.25c-3.6,0-7.2-.27-10.8-.24.67-.78,1.35-1.56,2-2.32a35.1,35.1,0,0,0,2.82-3.28c.05-.07-.06-.18-.13-.12A25.13,25.13,0,0,0,383.4,265c-.91,1-1.8,1.93-2.7,2.89-1.38,1.49-2.73,3-4.07,4.53,0-.15,0-.3,0-.44v-1.89c0-1.23,0-2.45,0-3.67,0-2.48,0-5,.19-7.45,0-.09-.14-.09-.15,0-.17,2.48-.43,5-.55,7.45-.06,1.22-.09,2.45-.1,3.67,0,.63,0,1.26,0,1.9,0,.34,0,.7,0,1.06l-.64.71c-2.88,3.28-5.61,6.68-8.27,10.14,0-.19,0-.38-.05-.57,0-.38-.08-.76-.13-1.14-.09-.83-.2-1.65-.33-2.48s-.24-1.54-.37-2.31-.35-1.75-.42-2.63a.08.08,0,1,0-.15,0,23.46,23.46,0,0,1,.31,2.64c.07.79.14,1.58.22,2.38s.14,1.59.22,2.38c0,.38.07.76.11,1.14,0,.2.05.39.07.58a1.18,1.18,0,0,0,.16.45c-.46.6-.92,1.19-1.37,1.79q-2.73,3.62-5.39,7.28c-.06.07.05.17.1.1,1.7-2.21,3.44-4.37,5.2-6.52,1.32.06,2.67,0,4-.06s2.78,0,4.17,0c.1,0,.09-.15,0-.15-1.39,0-2.79.05-4.18.05s-2.56-.05-3.83,0c1.55-1.89,3.12-3.76,4.69-5.63l1.73-2a8.64,8.64,0,0,0,1.61.05h1.89l3.56-.05c2.45,0,4.9-.12,7.35-.13.09,0,.09-.15,0-.15-2.45,0-4.9-.13-7.35-.19l-3.56-.09-1.9,0c-.36,0-.73,0-1.09,0l4-4.79a.19.19,0,0,0,.07-.08c1.32-1.55,2.63-3.11,4-4.64l.55-.63c3.74.11,7.47-.13,11.21-.06C392.31,268.4,392.31,268.25,392.21,268.25Z" style="fill:#263238"></path><path d="M390.37,274.63h-.87a.07.07,0,1,0,0,.13h.87A.08.08,0,0,0,390.37,274.63Z" style="fill:#263238"></path><path d="M388.43,274.64l-3.47-.07-1.73-.06a6.19,6.19,0,0,0-1.61,0c-.06,0-.05.09,0,.11a6.26,6.26,0,0,0,1.62.11l1.73,0h3.46C388.53,274.79,388.52,274.64,388.43,274.64Z" style="fill:#263238"></path><path d="M378.34,285.47a47,47,0,0,0-7.09-.64s0,0,0,.05c2.36.22,4.72.35,7.06.73C378.4,285.63,378.44,285.48,378.34,285.47Z" style="fill:#263238"></path><path d="M368.7,275.14c0-.2-.05-.41-.08-.61-.06-.47-.13-.93-.2-1.39-.14-.88-.29-1.76-.46-2.64,0-.08-.16-.06-.15,0q.17,1.37.3,2.73c0,.44.07.89.11,1.34a3.87,3.87,0,0,0,.18,1.27.17.17,0,0,0,.31-.05A1.89,1.89,0,0,0,368.7,275.14Z" style="fill:#263238"></path><path d="M415.91,248.76c-1.15-2.14-2.61-5-5.47-4.79-2.37.15-3.44,2.57-3.94,4.56-1.57,6.18-1.68,12.69-2,19-.64,13.37-1.22,26.75-1.31,40.14q0,5.58,0,11.14c0,3.78,0,7.59.26,11.37a.28.28,0,0,0,.56,0c0-3.23-.09-6.47-.11-9.71s0-6.32.07-9.48q.15-9.6.51-19.19c.23-6.36.51-12.71.78-19.07.14-3.18.27-6.35.41-9.53s.28-6.15.63-9.22c.2-1.71.45-3.43.81-5.11a7,7,0,0,1,1.48-3.43,3.23,3.23,0,0,1,4.18-.31,8.87,8.87,0,0,1,3,3.7A.07.07,0,1,0,415.91,248.76Z" style="fill:#263238"></path><path d="M415.14,247.73s-2.36-8.32,2.85-4.16c8.67,6.93,9,22,9,22s-15.42-9-17.33-14.86C406.78,241.91,415.14,247.73,415.14,247.73Z" style="fill:#8829E2"></path><path d="M423.73,259.39c-.15-.23-.3-.45-.44-.68a4.21,4.21,0,0,0,0-.71q0-.54,0-1.08c0-.7,0-1.4.08-2.1a.07.07,0,1,0-.15,0c0,.69-.07,1.38-.08,2.07,0,.34,0,.69,0,1,0,.14,0,.29,0,.45-.61-.94-1.23-1.87-1.87-2.79l-.57-.78a16.48,16.48,0,0,1-.05-2.72c0-1,0-1.93.06-2.9,0-.1-.14-.09-.15,0,0,1-.07,2-.13,3,0,.71-.1,1.44-.06,2.15-1.48-2-3.06-4-4.66-5.92-.06-.06-.17,0-.12.1,1,1.25,1.94,2.54,2.87,3.84-1.81-.43-3.66-.67-5.5-.94-.09,0-.13.13,0,.15,2,.29,3.87.78,5.8,1.21h0l2.19,3.13.87,1.29h-.08l-.6-.08c-.42-.05-.85-.09-1.28-.12-.89-.07-1.78-.12-2.67-.16-.1,0-.09.14,0,.14.88,0,1.75.09,2.62.18l1.38.17.6.07.18,0,1.48,2.18c.87,1.29,1.65,2.67,2.58,3.91a.07.07,0,0,0,.12-.07A41.82,41.82,0,0,0,423.73,259.39Z" style="fill:#263238"></path><path d="M419.89,250v-1a15.4,15.4,0,0,1,.08-2,.07.07,0,1,0-.14,0c0,.68-.08,1.35-.11,2,0,.34,0,.68,0,1,0,.15,0,.31,0,.46a1.6,1.6,0,0,0,0,.49.07.07,0,0,0,.13,0,1.3,1.3,0,0,0,0-.44Z" style="fill:#263238"></path><path d="M418,253.44c-.57-.1-1.16-.13-1.74-.18s-1.27-.11-1.9-.19a.08.08,0,1,0,0,.15c1.22.07,2.43.29,3.65.33C418,253.56,418.05,253.45,418,253.44Z" style="fill:#263238"></path><path d="M422.82,253.49c.05.06,0,.24,0,.32v.85c0,.19,0,.39,0,.58a1.24,1.24,0,0,0,0,.51,0,0,0,0,0,.06,0,.66.66,0,0,0,0-.24c0-.09,0-.18,0-.27v-1.43c0-.09,0-.26,0-.32S422.72,253.35,422.82,253.49Z" style="fill:#263238"></path><path d="M416.27,293.16c-3.24-2.44-6.15-5.93-10.52-6.1-3.6-.15-6.12,2.56-7.56,5.58a31.22,31.22,0,0,0-1.76,5c-.65,2.28-1.27,4.57-1.84,6.87q-1.69,6.78-2.89,13.67c-.44,2.56-.84,5.13-1.17,7.71a65.42,65.42,0,0,0-.76,7.89.41.41,0,0,0,.81.09c.44-2.15.62-4.38.94-6.56s.65-4.38,1-6.56q1.11-6.56,2.58-13c.93-4.08,1.85-8.22,3.16-12.19,1-2.85,2.46-6.17,5.54-7.2,4.67-1.55,8.92,2.41,12.35,5C416.24,293.32,416.35,293.22,416.27,293.16Z" style="fill:#263238"></path><path d="M412.91,290.83s-3-8.53,1.34-10.21c6.48-2.5,23.43,16.59,20.11,45.85,0,0-13.1-7.21-22.77-15.33s-12.15-18.73-7.89-21.47S412.91,290.83,412.91,290.83Z" style="fill:#8829E2"></path><path d="M432.41,320.2a22.62,22.62,0,0,0-1.58-2.95c-.55-1-1.11-2-1.69-3-1.13-1.92-2.25-3.85-3.4-5.76l-.57-.93c0-.11.05-.23.07-.34.07-.28.13-.56.2-.85.14-.63.25-1.27.37-1.91.24-1.25.45-2.52.79-3.75,0-.09-.13-.12-.15,0-.26,1.25-.66,2.49-1,3.71-.18.6-.37,1.2-.53,1.81-.06.21-.11.42-.17.63-1.39-2.28-2.81-4.56-4.33-6.75a3.56,3.56,0,0,0,.15-.94c0-.43.09-.85.14-1.28.12-1,.23-1.93.37-2.89a56.24,56.24,0,0,1,1-5.6c0-.1-.13-.12-.15,0-.47,1.84-1,3.69-1.32,5.56-.17.91-.34,1.83-.46,2.75-.06.47-.11.93-.16,1.4,0,.13,0,.27-.05.41-.47-.66-.94-1.32-1.43-2-1.5-2-3.05-3.89-4.61-5.8-.06-.08-.19,0-.13.08a102.8,102.8,0,0,1,7.37,10.76l1.28,2.07-.43-.05c-.54-.07-1.1-.11-1.65-.16l-3.31-.29c-2.2-.17-4.42-.31-6.62-.54-.09,0-.12.13,0,.14,2.23.26,4.45.62,6.67.93,1.09.16,2.19.3,3.28.44a12.26,12.26,0,0,0,2.53.26c.86,1.41,1.74,2.82,2.6,4.23a3.84,3.84,0,0,0-.59,0h-3.15l-4.26,0c-.1,0-.08.15,0,.15,1.44,0,2.88.09,4.32.16l2,.13,1,.07a2,2,0,0,0,.9,0l2.22,3.6c.67,1.11,1.36,2.21,2.06,3.3a26.89,26.89,0,0,0,2.22,3.34C432.32,320.34,432.44,320.29,432.41,320.2Z" style="fill:#263238"></path><path d="M426.16,296.55a20.18,20.18,0,0,1-.58,2.78c-.24.95-.52,1.89-.83,2.82a.09.09,0,1,0,.18.06c.29-.93.55-1.86.78-2.8s.37-1.89.6-2.83C426.33,296.48,426.17,296.46,426.16,296.55Z" style="fill:#263238"></path><path d="M416.54,302.27a1.11,1.11,0,0,0-.72-.27l-1.23-.17-2.31-.28c-1.59-.18-3.19-.34-4.79-.54a.08.08,0,0,0,0,.15c1.5.18,3,.41,4.51.6l2.21.29,1.06.12a3.6,3.6,0,0,1,1.22.21A.07.07,0,0,0,416.54,302.27Z" style="fill:#263238"></path><path d="M426.14,315.13c-.75-.06-1.51-.08-2.27-.11l-1.14,0-.55,0a3.35,3.35,0,0,1-.71,0c-.11,0-.12.16,0,.15a2.52,2.52,0,0,1,.67,0l.59,0,1.15.07c.75.05,1.51.09,2.26.1C426.23,315.3,426.23,315.14,426.14,315.13Z" style="fill:#263238"></path><path d="M430.76,311.86c.09-.43.17-.86.25-1.29.15-.84.31-1.68.46-2.53,0-.09-.12-.11-.15,0-.18.82-.37,1.64-.55,2.46-.09.41-.19.82-.27,1.24l-.12.57a1.55,1.55,0,0,0-.07.6c0,.07.12.13.17.05A3.25,3.25,0,0,0,430.76,311.86Z" style="fill:#263238"></path><polygon points="386.4 330.48 387.31 340.85 390.42 375.88 417.84 375.88 421.71 340.85 422.86 330.48 386.4 330.48" style="fill:#455a64"></polygon><polygon points="386.4 330.48 387.31 340.85 421.71 340.85 422.86 330.48 386.4 330.48" style="fill:#263238"></polygon><rect x="383.69" y="327.65" width="41.89" height="8.42" transform="translate(809.26 663.71) rotate(180)" style="fill:#455a64"></rect></g><g id="freepik--Sofa--inject-14"><rect x="265.31" y="261.06" width="78.9" height="130.78" style="fill:#8829E2"></rect><rect x="265.31" y="261.06" width="78.9" height="130.78" style="opacity:0.2"></rect><polygon points="278.6 324.73 159.57 324.73 132.26 188.57 251.29 188.57 278.6 324.73" style="fill:#8829E2"></polygon><polygon points="278.6 324.73 159.57 324.73 132.26 188.57 251.29 188.57 278.6 324.73" style="opacity:0.2"></polygon><polygon points="159.57 324.73 117.98 324.73 94.18 206.06 132.26 188.57 159.57 324.73" style="fill:#8829E2"></polygon><polygon points="159.57 324.73 117.98 324.73 94.18 206.06 132.26 188.57 159.57 324.73" style="opacity:0.30000000000000004"></polygon><rect x="74.48" y="261.06" width="98.76" height="130.78" style="fill:#8829E2"></rect><rect x="74.48" y="261.06" width="98.76" height="130.78" style="opacity:0.2"></rect><rect x="74.48" y="261.06" width="63.74" height="130.78" style="opacity:0.2"></rect><polygon points="309.19 391.84 291.78 391.84 265.83 261.06 309.19 261.06 309.19 391.84" style="opacity:0.2"></polygon><rect x="173.24" y="295.72" width="135.95" height="96.12" style="fill:#8829E2"></rect><rect x="173.24" y="295.72" width="135.95" height="96.12" style="opacity:0.2"></rect><g style="opacity:0.1"><path d="M146.8,261.06l13.22-.23,13.22-.17h.39v.4l.15,15.31.05,15.3c0,10.2.07,20.41,0,30.61s-.05,20.41-.18,30.61-.23,20.4-.44,30.61q-.33-15.31-.45-30.61c-.12-10.2-.14-20.41-.17-30.61s0-20.41,0-30.61l.06-15.3.15-15.31.4.4L160,261.3Z"></path><path d="M309.19,261.06c.27,10.24.4,20.48.51,30.72l.15,30.73-.15,30.72-.19,15.36L309.19,384l-.32-15.36-.19-15.36-.15-30.72.15-30.73C308.79,281.54,308.92,271.3,309.19,261.06Z"></path><path d="M309.19,324.73c-11.33.27-22.66.4-34,.5l-34,.16-34-.15-17-.19-17-.32,17-.33,17-.18,34-.15,34,.15C286.53,324.33,297.86,324.46,309.19,324.73Z"></path><path d="M309.19,295.72c-11.33.27-22.66.4-34,.5l-34,.16-34-.16-17-.18-17-.32,17-.33,17-.18,34-.15,34,.15C286.53,295.32,297.86,295.44,309.19,295.72Z"></path></g><polygon points="98.7 391.84 97.84 402.43 95.83 426.91 86.6 426.91 84.59 402.43 83.72 391.84 98.7 391.84" style="fill:#455a64"></polygon><polygon points="83.72 391.84 98.7 391.84 97.84 402.43 84.59 402.43 83.72 391.84" style="fill:#37474f"></polygon><polygon points="163.22 391.84 162.35 402.43 160.34 426.91 151.11 426.91 149.1 402.43 148.24 391.84 163.22 391.84" style="fill:#455a64"></polygon><polygon points="148.24 391.84 163.22 391.84 162.35 402.43 149.1 402.43 148.24 391.84" style="fill:#37474f"></polygon><polygon points="270.22 391.84 269.36 402.43 267.35 426.91 258.12 426.91 256.11 402.43 255.24 391.84 270.22 391.84" style="fill:#455a64"></polygon><polygon points="255.24 391.84 270.22 391.84 269.36 402.43 256.11 402.43 255.24 391.84" style="fill:#37474f"></polygon><polygon points="334.75 391.84 333.89 402.43 331.88 426.91 322.65 426.91 320.64 402.43 319.77 391.84 334.75 391.84" style="fill:#455a64"></polygon><polygon points="334.75 391.84 333.89 402.43 320.64 402.43 319.77 391.84 334.75 391.84" style="fill:#37474f"></polygon><g style="opacity:0.2"><path d="M147.52,232a.84.84,0,0,0,0,1.67A.84.84,0,0,0,147.52,232Z"></path><path d="M149,354.21a.84.84,0,0,0,0,1.67A.84.84,0,0,0,149,354.21Z"></path><path d="M240.21,333.31a.84.84,0,0,0,0,1.67A.84.84,0,0,0,240.21,333.31Z"></path><path d="M206.06,318.24c0-.08-.08-.17-.13-.25a.38.38,0,0,0-.65,0c-.05.08-.09.17-.13.25C204.68,319.23,206.53,319.23,206.06,318.24Z"></path><path d="M122.64,356.32a2,2,0,0,0-.13-.25.38.38,0,0,0-.65,0,2,2,0,0,0-.13.25C121.26,357.31,123.11,357.31,122.64,356.32Z"></path><path d="M154.71,237.06a.64.64,0,0,0,0,1.28A.64.64,0,0,0,154.71,237.06Z"></path><path d="M91.21,295.74a.64.64,0,0,0,0,1.27A.64.64,0,0,0,91.21,295.74Z"></path><path d="M194,201.45a.89.89,0,0,0-1.25,0,1.22,1.22,0,0,0-.3,1.21,1,1,0,0,0,1.85,0A1.24,1.24,0,0,0,194,201.45Z"></path><path d="M156,349.48a.89.89,0,0,0-1.25,0,1.25,1.25,0,0,0-.31,1.21,1,1,0,0,0,1.86,0A1.24,1.24,0,0,0,156,349.48Z"></path><path d="M304.86,338.1a.84.84,0,0,0,0-1.67A.84.84,0,0,0,304.86,338.1Z"></path><path d="M206.14,376.71a.84.84,0,0,0,0-1.67A.84.84,0,0,0,206.14,376.71Z"></path><path d="M254.11,226.55a.84.84,0,0,0,0-1.67A.84.84,0,0,0,254.11,226.55Z"></path><path d="M331.93,330.21a2,2,0,0,0,.13.25.38.38,0,0,0,.65,0,2,2,0,0,0,.13-.25C333.31,329.22,331.45,329.22,331.93,330.21Z"></path><path d="M255.29,279.86a.89.89,0,0,0,1.25,0,1.24,1.24,0,0,0,.3-1.21,1,1,0,0,0-1.86,0A1.23,1.23,0,0,0,255.29,279.86Z"></path></g></g><g id="freepik--Post--inject-14"><rect x="180.25" y="49" width="94.81" height="113.64" style="fill:#ebebeb"></rect><rect x="185.64" y="62.15" width="84.04" height="79.38" style="fill:#fff"></rect><path d="M189.69,57.9a2.64,2.64,0,0,1-.79.33,2.75,2.75,0,1,1,.79-.33Z" style="fill:#fff"></path><path d="M189.08,55.24a.84.84,0,1,1-.84-.84A.84.84,0,0,1,189.08,55.24Z" style="fill:#ebebeb"></path><path d="M189.69,57.55v.35a2.64,2.64,0,0,1-.79.33,2.76,2.76,0,0,1-2.1-.33v-.35a1.45,1.45,0,1,1,2.89,0Z" style="fill:#ebebeb"></path><path d="M268,55.24a.26.26,0,0,1,.26.26.26.26,0,1,1-.52,0A.26.26,0,0,1,268,55.24Z" style="fill:#c7c7c7"></path><path d="M268.76,55.24a.26.26,0,0,1,.26.26.26.26,0,1,1-.51,0A.26.26,0,0,1,268.76,55.24Z" style="fill:#c7c7c7"></path><path d="M269.56,55.24a.26.26,0,0,1,.26.26.26.26,0,0,1-.52,0A.26.26,0,0,1,269.56,55.24Z" style="fill:#c7c7c7"></path><rect x="194.2" y="54.88" width="26.52" height="1.35" style="fill:#c7c7c7"></rect><path d="M191.18,147.83a6.66,6.66,0,0,1-1.47,1.72,9.27,9.27,0,0,1-1,.77h-.26a8.83,8.83,0,0,1-2.44-2.49,2.73,2.73,0,0,1-.17-2.61,1.3,1.3,0,0,1,1.15-.66,1.8,1.8,0,0,1,1.59,1.12,1.81,1.81,0,0,1,1.59-1.12,1.33,1.33,0,0,1,1.16.66A2.76,2.76,0,0,1,191.18,147.83Z" style="fill:#8829E2"></path><path d="M208.34,150.65l-.41-.08-.83-3.11-1.93-2.1.17-.39h6.8l.18.37Zm-2.47-5.22,1.61,1.76.05.09.73,2.71,3.42-4.56Z" style="fill:#c7c7c7"></path><rect x="206.85" y="146.04" width="5.75" height="0.46" transform="translate(-41.3 97.64) rotate(-23.93)" style="fill:#c7c7c7"></rect><path d="M198.08,150.36a2.9,2.9,0,1,1,2.9-2.9,2.86,2.86,0,0,1-.12.82l.43,1.79-.27.28-1.53-.36A2.91,2.91,0,0,1,198.08,150.36Zm0-5.34a2.44,2.44,0,1,0,0,4.87,2.47,2.47,0,0,0,1.25-.34l.18,0,1.25.29-.37-1.48v-.12a2.44,2.44,0,0,0-2.32-3.19Z" style="fill:#c7c7c7"></path><path d="M265.72,150.31l-.37-.18V145.2l.24-.23h4l.23.23v4.93l-.37.18-1.86-1.69Zm.1-4.88v4.24l1.63-1.52h.27l1.64,1.52v-4.24Z" style="fill:#c7c7c7"></path></g><g id="freepik--Icons--inject-14"><rect x="139.65" y="158.69" width="41.38" height="41.38" style="fill:#455a64"></rect><path d="M156.5,183.76H151v-6.37h5.45c0-.49,0-.86.06-1.24,0-1.67,0-3.35.12-5,.35-3.65,2.59-6.23,6.21-6.73a51.69,51.69,0,0,1,6.94-.06v5.8c-.84,0-1.68,0-2.51,0a11.78,11.78,0,0,0-2.23.15,2.08,2.08,0,0,0-1.77,2c-.07,1.62,0,3.25,0,5h6.33c-.27,2.08-.5,4-.8,5.94,0,.19-.51.42-.78.43-1.53,0-3.06,0-4.71,0v16.35H156.5Z" style="fill:#fff"></path><rect x="345.15" y="198.91" width="36.53" height="36.53" style="fill:#8829E2"></rect><path d="M376.85,209.75c0-3.65-2.3-6-5.93-6.05-5,0-10-.06-15,0a5.63,5.63,0,0,0-5.9,5.92c0,2.51,0,5,0,7.52s0,4.9,0,7.35c0,3.73,2.32,6.12,6,6.16q7.44.09,14.88,0a5.68,5.68,0,0,0,6-6Q376.89,217.19,376.85,209.75Zm-2.4,14.91c0,2.31-1.27,3.59-3.59,3.6q-7.44,0-14.88,0a3.25,3.25,0,0,1-3.59-3.59q0-7.5,0-15A3.29,3.29,0,0,1,356,206q7.44,0,14.88,0a3.31,3.31,0,0,1,3.6,3.61c0,2.51,0,5,0,7.51S374.48,222.15,374.45,224.66Z" style="fill:#fff"></path><path d="M363.43,210.12a7,7,0,1,0,7,7.13A7,7,0,0,0,363.43,210.12Zm-.09,11.7a4.73,4.73,0,0,1-4.6-4.62,4.68,4.68,0,0,1,9.36,0A4.74,4.74,0,0,1,363.34,221.82Z" style="fill:#fff"></path><path d="M372.54,210a1.61,1.61,0,0,1-3.2-.3,1.55,1.55,0,0,1,1.69-1.49A1.57,1.57,0,0,1,372.54,210Z" style="fill:#fff"></path></g><g id="freepik--speech-bubbles--inject-14"><rect x="337.63" y="89.78" width="82.53" height="46.6" style="fill:#8829E2"></rect><polygon points="351.58 136.38 337.63 150.7 337.63 136.38 351.58 136.38" style="fill:#8829E2"></polygon><rect x="349.56" y="99.14" width="49" height="1.44" style="fill:#fff"></rect><rect x="349.56" y="103.54" width="33.58" height="1.44" style="fill:#fff"></rect><rect x="349.56" y="107.95" width="58.67" height="1.44" style="fill:#fff"></rect><rect x="349.56" y="112.36" width="20.18" height="1.44" style="fill:#fff"></rect><rect x="349.56" y="116.77" width="46.03" height="1.44" style="fill:#fff"></rect><rect x="349.56" y="121.17" width="49" height="1.44" style="fill:#fff"></rect><rect x="349.56" y="125.58" width="36.71" height="1.44" style="fill:#fff"></rect><rect x="353.91" y="151.06" width="82.53" height="34.1" transform="translate(790.34 336.22) rotate(180)" style="fill:#455a64"></rect><polygon points="422.48 185.16 436.44 199.48 436.44 185.16 422.48 185.16" style="fill:#455a64"></polygon><rect x="366.63" y="158.3" width="44.43" height="1.48" style="fill:#fff"></rect><rect x="366.63" y="162.83" width="56.56" height="1.48" style="fill:#fff"></rect><rect x="366.63" y="167.37" width="41.11" height="1.48" style="fill:#fff"></rect><rect x="366.63" y="171.91" width="51.7" height="1.48" style="fill:#fff"></rect><rect x="366.63" y="176.44" width="33.9" height="1.48" style="fill:#fff"></rect><rect x="281.51" y="97.09" width="46.37" height="34.67" style="fill:#455a64"></rect><polygon points="295.85 131.76 313.54 131.76 304.69 141.31 295.85 131.76" style="fill:#455a64"></polygon><path d="M309.44,108.8a4.75,4.75,0,1,1-4.74-4.75A4.74,4.74,0,0,1,309.44,108.8Z" style="fill:#fff"></path><path d="M314.71,124.16h-20s.55-4.77,1.52-6.19,3.56-3,8.49-3,7.52,1.6,8.5,3S314.71,124.16,314.71,124.16Z" style="fill:#fff"></path><rect x="194.1" y="83.63" width="31.72" height="23.72" style="fill:#8829E2"></rect><polygon points="203.91 107.35 216 107.35 209.96 113.89 203.91 107.35" style="fill:#8829E2"></polygon><path d="M216.12,98.12a19.23,19.23,0,0,1-6.16,5.34,19.23,19.23,0,0,1-6.16-5.34c-2.17-2.87-2.06-7.36,1-8.33,3.43-1.08,5.12,4.08,5.12,4.08s1.71-5.19,5.11-4.08C218.17,90.79,218.28,95.25,216.12,98.12Z" style="fill:#fff"></path></g><g id="freepik--Character--inject-14"><path d="M268,201.28l-9.35.1c-1.74-3.28-3.76-9.07-2.75-17.21.17-1.35-3.12,6.36-2,17.26-9.87.1-23.3.24-35,.25-.16-4.58-.52-8.82-.52-8.82a50.51,50.51,0,0,1-2,8.83c-1.6,0-3.17,0-4.68,0,.44-7.1-.61-19.5-.61-19.5A62.31,62.31,0,0,1,205,201.65c-7.44-.07-12.34-.26-12-.61,11.44-12.76,3.29-20.31,6.64-31.64,4-13.57,15.8-15.58,15.59-25.82-.15-8.34-1-23.46,9.58-26.55a20.26,20.26,0,0,1,22.05-3.92c16.55,6.59,9.62,32.19,10.69,37.43,1.51,7.48,5,10.16,7.57,18.71s-1.41,14.31-1.93,20.15S269.89,201.29,268,201.28Z" style="fill:#263238"></path><path d="M192.66,199.2a29.25,29.25,0,0,0,3.71-7.25c.89-2.52.55-5.13.08-7.82a79.4,79.4,0,0,1-1.26-8.25,21.75,21.75,0,0,1,.93-8.56A19.21,19.21,0,0,1,200.7,160a51.2,51.2,0,0,1,6.47-5.34,31.29,31.29,0,0,0,6-5.4,14.94,14.94,0,0,0,3.08-7.41,13.91,13.91,0,0,1-2.26,8,28.46,28.46,0,0,1-5.79,6.1,61.91,61.91,0,0,0-6,5.44,18.1,18.1,0,0,0-4,6.64,21.16,21.16,0,0,0-.88,7.75c.12,2.66.58,5.35.9,8.12a27.08,27.08,0,0,1,.21,4.25,12.07,12.07,0,0,1-1,4.21A23.43,23.43,0,0,1,192.66,199.2Z" style="fill:#263238"></path><path d="M256.11,122.79a41.7,41.7,0,0,1,2.13,10c.38,3.38.59,6.78.76,10.16l.3,5a25.22,25.22,0,0,0,.69,4.83,27.22,27.22,0,0,0,4.43,8.67,38,38,0,0,1,2.66,4.48,23.81,23.81,0,0,1,1.78,5,34.37,34.37,0,0,1,.66,5.21,21.52,21.52,0,0,1-.35,5.25c-.33,1.74-.84,3.37-1.27,5a25.59,25.59,0,0,0-.85,4.88,10.4,10.4,0,0,0,4,8.65,10.54,10.54,0,0,1-5-8.67,25.54,25.54,0,0,1,.51-5.17c.31-1.7.76-3.32,1-4.93a27,27,0,0,0-.65-9.71,23.63,23.63,0,0,0-1.68-4.52,36.62,36.62,0,0,0-2.57-4.22c-.92-1.4-1.89-2.85-2.71-4.41a20.83,20.83,0,0,1-1.9-5,26.88,26.88,0,0,1-.6-5.22c-.08-1.71-.08-3.41-.09-5.1,0-3.39,0-6.77-.12-10.13A49.13,49.13,0,0,0,256.11,122.79Z" style="fill:#263238"></path><path d="M285.13,444.37c-2.91-.39-76-36.85-77.83-39.92-.23-.35,2.92-7,7.39-16.11,3.54-7.2,8.33-16.15,13-24.73L274,386.17l-9.23,17.49s8.12,9.84,14.73,18.18c0,0,0,0,0,0,4.06,5.13,7.55,9.71,8.18,11.08C289.37,436.53,288,444.78,285.13,444.37Z" style="fill:#ebebeb"></path><path d="M286,446.24c-3-.46-76.6-38.29-78.5-41.5-.88-1.49,6.51-17.48,14.67-34.17L270.07,395l-4.65,8.52s21.69,27.08,23.39,30.83S289,446.7,286,446.24Z" style="fill:#8829E2"></path><path d="M286.42,442.75c-12.18-6.64-61.94-32.29-74.48-37.93-.11,0-.14,0,0,.08,11.93,6.85,61.89,32.09,74.41,38.05C286.58,443.08,286.68,442.89,286.42,442.75Z" style="fill:#263238"></path><path d="M268.56,401.71c-4.39-3.4-10.71-5.71-16.19-4.15-.22.06-.13.36.06.39a76.39,76.39,0,0,1,15.8,4.37A.35.35,0,0,0,268.56,401.71Z" style="fill:#263238"></path><path d="M271,405.62c-4.39-3.4-10.71-5.7-16.19-4.15-.22.06-.13.36.05.39a76.31,76.31,0,0,1,15.81,4.37A.35.35,0,0,0,271,405.62Z" style="fill:#263238"></path><path d="M273.4,409.54c-4.39-3.4-10.71-5.71-16.2-4.16-.21.06-.12.36.06.39a77.57,77.57,0,0,1,15.81,4.37A.35.35,0,0,0,273.4,409.54Z" style="fill:#263238"></path><path d="M275.82,413.45c-4.39-3.4-10.71-5.71-16.2-4.16-.21.06-.12.37.06.4a76.64,76.64,0,0,1,15.8,4.36A.35.35,0,0,0,275.82,413.45Z" style="fill:#263238"></path><path d="M283.3,395.09c-.56-3.6-4.72-4.25-7.62-3.59a29.19,29.19,0,0,0-13.19,7.28.15.15,0,0,0,0,.23.68.68,0,0,0,.45,1c4.77.58,9.8,1.79,14.61.88C280.38,400.36,283.83,398.51,283.3,395.09Zm-12.92,4.32c-2.36-.23-4.69-.57-7.05-.71a87.53,87.53,0,0,1,7.8-4.08,31.9,31.9,0,0,1,4-1.46c2.12-.57,9.28-.43,5.68,4.46C278.83,400.31,273.18,399.68,270.38,399.41Z" style="fill:#263238"></path><path d="M250.8,391.17c3.13,3.76,7.77,6,11.81,8.64a.69.69,0,0,0,1-.48c.09,0,.18-.05.16-.17a29.06,29.06,0,0,0-5.52-14c-1.81-2.36-5.43-4.52-8.16-2.1S249,389,250.8,391.17Zm-.41-4.59c.35-6.05,5.95-1.6,7.22.19a33,33,0,0,1,2.15,3.68c1.36,2.62,2.32,5.38,3.41,8.11-1.91-1.39-3.92-2.62-5.88-3.94C255,393,250.2,389.92,250.39,386.58Z" style="fill:#263238"></path><path d="M275.78,395.58l-53-26.8s38.66-72.29,37.64-73.62c-3.57-4.6-46.63-2.51-65.23-21-19.69-19.58-4.25-50.08-4.25-50.08h51.45s-.87,16.6,1.34,18.43c1.46,1.22,77.1,8.51,80.06,28.47C328.87,305.55,275.78,395.58,275.78,395.58Z" style="fill:#37474f"></path><path d="M277.87,387.3c-6.13-3.71-12.41-7.11-18.71-10.51s-12.65-6.71-19.06-9.89c-3.62-1.79-7.31-3.41-10.93-5.19a.1.1,0,0,0-.1.17c3.18,1.71,6.26,3.58,9.43,5.3s6.24,3.38,9.38,5c6.32,3.35,12.68,6.63,19,9.95,3.57,1.87,7.19,3.63,10.83,5.37A.14.14,0,0,0,277.87,387.3Z" style="fill:#263238"></path><path d="M280.63,286.7c-1.26-2.61-4.62-3-7.13-3.63L253,278c-12.12-3-24.61-5.83-35.47-12.25-5.19-3.07-10.23-6.95-12.82-12.54s-2.58-11.57-2.63-17.48c0-1.46.08-2.92.18-4.38,0-.13-.19-.12-.2,0-.38,5.82-1,11.64.33,17.4a23.47,23.47,0,0,0,3.26,7.85,26.9,26.9,0,0,0,5.92,6.22c9.6,7.53,21.65,11.14,33.3,14.12,6.58,1.68,13.19,3.28,19.79,4.89l10.2,2.5A9.43,9.43,0,0,1,279,286a4.4,4.4,0,0,1,1.26,3.7,14.28,14.28,0,0,1-1,4.05c-.61,1.6-1.26,3.18-1.9,4.77q-1.89,4.65-3.87,9.25-4,9.27-8.3,18.41c-5.72,12.14-11.84,24.1-18.07,36-.78,1.48-1.53,3-2.29,4.46,0,.09.09.16.14.07,6.67-11.75,12.91-23.77,18.85-35.91s11.5-24.29,16.27-36.83C280.92,291.69,281.73,289,280.63,286.7Z" style="fill:#263238"></path><path d="M400.64,447.09c-2.77.92-84.44,0-87.45-1.91-.35-.22-.38-17.72-.38-17.72-1.59-8.22-3.2-18.28-4.61-27.79h54l2.36,19.68s11.61,5.3,21.19,9.93l0,0c5.9,2.85,11,5.44,12.21,6.39C401,438.18,403.43,446.19,400.64,447.09Z" style="fill:#ebebeb"></path><path d="M401.78,447.8c-2.9.95-85.64.45-88.78-1.56-1-.62-3.71-31-3.79-37.11l55.26.17-.3,9.71s31.59,14.35,34.8,16.93S404.68,446.85,401.78,447.8Z" style="fill:#8829E2"></path><path d="M400.61,444.48c-13.87-.42-69.84-.82-83.58-.18-.11,0-.11.08,0,.08,13.74.72,69.71.67,83.58.33C400.9,444.7,400.91,444.49,400.61,444.48Z" style="fill:#263238"></path><path d="M366.14,415.94c-5.45-1.06-12.13-.26-16.32,3.61-.17.15.05.37.22.32a77.13,77.13,0,0,1,16.07-3.25A.34.34,0,0,0,366.14,415.94Z" style="fill:#263238"></path><path d="M370.07,418.33c-5.46-1.05-12.14-.25-16.33,3.61-.16.15.05.38.23.33A76.49,76.49,0,0,1,370,419,.35.35,0,0,0,370.07,418.33Z" style="fill:#263238"></path><path d="M374,420.73c-5.45-1.05-12.13-.25-16.32,3.61-.17.15.05.38.23.33A76.37,76.37,0,0,1,374,421.42.35.35,0,0,0,374,420.73Z" style="fill:#263238"></path><path d="M377.92,423.13c-5.45-1.05-12.13-.25-16.33,3.61-.16.15.05.38.23.32a77.12,77.12,0,0,1,16.07-3.24A.35.35,0,0,0,377.92,423.13Z" style="fill:#263238"></path><path d="M376.3,403.37c-2.13-3-6.13-1.66-8.42.24a29.11,29.11,0,0,0-8.48,12.46.14.14,0,0,0,.13.19.67.67,0,0,0,.85.69c4.51-1.64,9.55-2.84,13.42-5.82C376.07,409.39,378.31,406.18,376.3,403.37Zm-9.58,9.69c-2.21.86-4.44,1.61-6.61,2.55a85.51,85.51,0,0,1,5.12-7.16,30.59,30.59,0,0,1,2.91-3.11c1.63-1.47,8.08-4.57,7.08,1.41C374.67,410.05,369.34,412,366.72,413.06Z" style="fill:#263238"></path><path d="M345.53,414.56c4.49,1.94,9.66,1.88,14.44,2.37a.68.68,0,0,0,.66-.88.14.14,0,0,0,.08-.22,29.15,29.15,0,0,0-11.26-10c-2.69-1.29-6.88-1.58-8.22,1.82C340,410.85,342.91,413.42,345.53,414.56Zm-2.44-3.91c-2.42-5.56,4.59-4.12,6.53-3.09a31.14,31.14,0,0,1,3.58,2.3,87,87,0,0,1,6.7,5.71c-2.33-.39-4.68-.57-7-.87C350.08,414.34,344.43,413.72,343.09,410.65Z" style="fill:#263238"></path><path d="M365.94,408.38l-61.64-.45s-12.64-96-17.64-101.32c-2.53-2.71-83.89-3.06-103.84-22.08s0-60.44,0-60.44h52.5s1.3,16.2-2.72,26.12c0,0,73.4,1.18,93.41,16.91C352.85,288.21,365.94,408.38,365.94,408.38Z" style="fill:#37474f"></path><path d="M361.16,398.21c-7.15-.52-14.29-.71-21.45-.88s-14.32-.24-21.47-.16c-4,0-8.07.27-12.1.33a.1.1,0,0,0,0,.19c3.61.08,7.2.35,10.81.45s7.09.18,10.64.24c7.16.12,14.32.15,21.47.23,4,.05,8.06,0,12.1-.13A.14.14,0,0,0,361.16,398.21Z" style="fill:#263238"></path><path d="M209.55,231.75a3.83,3.83,0,0,1-.29.7c0,.05,0,.09,0,.12-.69,2.15-1,4.43-1.64,6.59a10.37,10.37,0,0,1-4,5.69c-4.07,2.82-9,4.11-13.7,5.28a.13.13,0,0,0,0,.26,25.82,25.82,0,0,0,8.08-1.24,20.9,20.9,0,0,0,6.81-3.26A10.66,10.66,0,0,0,208.8,240a34.82,34.82,0,0,0,.68-3.78,28.72,28.72,0,0,0,.48-4.43A.21.21,0,0,0,209.55,231.75Z" style="fill:#263238"></path><path d="M242.2,246.6a59.61,59.61,0,0,0-9.44,3.61l-.15.06a2.26,2.26,0,0,0,.14-.57c0-.23.08-.45.11-.68s.06-.48.08-.72,0-.24,0-.36v0a2.8,2.8,0,0,0,2-1,7.55,7.55,0,0,0,1.26-3c.35-1.34.68-2.69,1-4,.33-1.51.61-3,.85-4.55a31.29,31.29,0,0,0,.52-4.52.22.22,0,0,0-.43-.05c-.35,1.39-.51,2.83-.77,4.24s-.57,2.82-.89,4.22-.67,2.8-1.06,4.19c-.34,1.23-.69,3-2.12,3.43-3,.84-1.62-5.78-1.49-7.07.3-3,.48-6,1-9a.1.1,0,0,0-.2,0c-.64,2.72-1.37,5.4-1.86,8.17-.23,1.35-.4,2.72-.55,4.08a6.29,6.29,0,0,0,.27,3.52,2.59,2.59,0,0,0,1.95,1.44l-.1.31c-.06.22-.14.44-.19.66s-.11.44-.16.67a1.62,1.62,0,0,0-.09.81.32.32,0,0,0,.14.18c-1.26.55-2.52,1.09-3.76,1.67a32.65,32.65,0,0,0-4.53,2.2c-.17.08,0,.31.13.28a33.56,33.56,0,0,0,4.74-1.72c1.58-.6,3.14-1.24,4.69-1.89a58.63,58.63,0,0,0,9-4.18A.15.15,0,0,0,242.2,246.6Z" style="fill:#263238"></path><path d="M181.71,248.75a78.75,78.75,0,0,1,3.2-15.26c.4-1.28.83-2.56,1.28-3.83a.1.1,0,0,1,.2.06,83.09,83.09,0,0,0-3.51,15.35,61.4,61.4,0,0,0-.47,15.26,27.17,27.17,0,0,0,4.84,12.88,33.16,33.16,0,0,0,9.39,8.54c8.5,5.32,18.6,7.26,28.32,9.15q16,3.11,32.18,5.61c12.1,1.89,35.84,3.2,36.89,5.33,2,4.12,5.21,23.31,7.27,35.06s7.18,51.8,7.57,58.53c0,.44-.64.4-.68,0-1.13-11.89-3.18-26.9-4.84-38.74s-3.65-23.38-6-35c-1.31-6.44-3.77-17.84-4.56-18.91-1.21-1.66-21.56-3.12-32.44-4.8s-22-3.59-32.93-5.68c-10-1.91-20.41-3.63-29.4-8.64-7.76-4.32-14.08-11.11-16-19.9A47.24,47.24,0,0,1,181.71,248.75Z" style="fill:#263238"></path><path d="M257.07,303.28c2.13,0,26.73,2.23,30.93,3.07.3.06,7.77,41.71,8.49,49.38.1,1-.29,1.95-.59,0-.57-3.77-9.18-48.3-9.19-48.32-4.21-.48-27.61-3.47-29.68-3.84C256.85,303.54,256.91,303.29,257.07,303.28Z" style="fill:#263238"></path><path d="M234.65,250.1a396.75,396.75,0,0,1,43.14,3.42c6.38.81,12.76,1.75,19.09,2.91a99.33,99.33,0,0,1,16.65,4.31,51.29,51.29,0,0,1,8.52,4,45.34,45.34,0,0,1,7.44,5.78c.1.09-.05.23-.15.14-4.28-3.58-9.64-6.14-14.83-8.11a96.71,96.71,0,0,0-16.32-4.43c-6.18-1.18-12.43-2.05-18.67-2.9q-10.12-1.4-20.28-2.45c-7.64-.8-17-1.45-24.6-2.22A.23.23,0,0,1,234.65,250.1Z" style="fill:#263238"></path><path d="M222.2,171.91c5.91,20,20.25,45.2,30.89,44.54,9.71-.61,31.18-12.15,40-18.22s-12-27.77-17.26-24.28c-7.05,4.64-19.16,14.74-21.23,14.19-2.58-.7-5.29-4.63-20.64-22.4C227.66,158.47,219.68,163.4,222.2,171.91Z" style="fill: rgb(247, 169, 160);"></path><path d="M285.34,165.12c4.3-1.49,9.1-3.53,13.87-3.41s8.66,6.44,8.65,8.24-1.89,13-6.65,13-1.83-8.64-2-9.63-.34-2.25-1.24-2.17-16.68,7.43-16.68,7.43Z" style="fill: rgb(247, 169, 160);"></path><path d="M285.64,165.78c.27,0,13.06-4.94,17.82-4.82s8.67,6.44,8.66,8.24-1.89,13-6.65,13-1.83-8.64-2-9.63-.34-2.25-1.24-2.17-16.68,7.43-16.68,7.43Z" style="fill: rgb(247, 169, 160);"></path><path d="M303.86,181.57a5.61,5.61,0,0,1-.78-2.82,10,10,0,0,1,.2-3,16,16,0,0,0,.59-2.62,5.19,5.19,0,0,0-.64-2.52c-.36-.67-1.06-.45-1.67-.24a25.05,25.05,0,0,0-2.6,1.15l-2.72,1.37a25.46,25.46,0,0,0-2.77,1.5c-.07.05,0,.16,0,.13a23.88,23.88,0,0,0,2.43-1.07c.9-.41,1.81-.83,2.73-1.22s1.69-.8,2.55-1.16c.31-.12.92-.44,1.26-.36s.54,1,.62,1.27a4.52,4.52,0,0,1-.19,2.57,13.54,13.54,0,0,0-.51,2.61,6.91,6.91,0,0,0,.18,2.48,9.49,9.49,0,0,0,1.12,2.05C303.77,181.75,303.92,181.65,303.86,181.57Z" style="fill:#263238"></path><path d="M270.44,178.16s13.29-11.93,16.05-14.3c5.55-4.75,28.83-14.06,32.06-14.38s4.36,6.32-11.44,13.1c-8.33,3.57-9.85,8.31-9.71,10.95s2.62,7.56,7.06,7.48,7.35-6.54,11.43-7.23,1.33,6.76-1.57,11.05a27.23,27.23,0,0,1-12,9.22c-3.85,1.41-15.75,6.44-15.75,6.44Z" style="fill: rgb(247, 169, 160);"></path><path d="M310,177.93c-1.68,1.28-3.58,2.94-5.78,3s-3.74-1.42-4.78-3.28a8.33,8.33,0,0,1-1.11-6.13,10.17,10.17,0,0,1,3.07-4.95,25,25,0,0,1,6-4c.1,0,0-.18-.09-.14-2,.9-8.4,3.45-9.71,9a8.56,8.56,0,0,0,1.19,6.26c1,1.77,2.38,3.48,4.53,3.67,2.62.23,4.89-1.88,6.78-3.46C310.19,177.92,310.07,177.86,310,177.93Z" style="fill:#263238"></path><path d="M221.32,176.16a90.86,90.86,0,0,0,8.61,23.13c.82,1.45,1.32,2.19,1.32,2.19l18.34-15.9,2.52-2.19s-.37-.52-1.61-1.94c-1.75-2-5.26-5.79-11.9-12.34-3.94-3.9-7.27-6.38-9.95-7.65C221.06,157.89,218.45,164,221.32,176.16Z" style="fill:#8829E2"></path><path d="M228,201l4.77,6.76,20.47-18.08,4.59-4.06c-.56-.48-6-5.33-6-5.33l-1.31,1.14-2.58,2.24-18,15.6Z" style="fill:#8829E2"></path><path d="M228,201l4.77,6.76,20.47-18.08,4.59-4.06c-.56-.48-6-5.33-6-5.33l-1.31,1.14-2.58,2.24-18,15.6Z" style="opacity:0.1"></path><path d="M221.32,176.16a90.86,90.86,0,0,0,8.61,23.13L228,201l4.77,6.76,20.47-18.08-3.6-4.12-1.67-1.89c-7.44-8.52-14.84-17-19.27-22.23C221.06,157.89,218.45,164,221.32,176.16Z" style="fill:#263238"></path><path d="M246.52,237.84s-24.57,3.86-70-3.6c0,0,24.76-55.59,40.33-69.87,7.09-6.49,13.78-4.1,18.86.82,1.26,1.23,13.54,22.9,14.39,30.43.76,6.66-5.14,13.53-5.14,13.53Z" style="fill:#8829E2"></path><path d="M225,161.73c0,1.27,7.86,12.06,13.38,13.25.87.18-1.49-5.85-1.49-5.85.9-2.45,1.57-5,1.57-5l.35-.67L243.7,154l-9.79-10.71-1.44-1.45s-1.18,2.67-2.61,6l-.2.47c-.08.19-.17.37-.24.54-.22.5-.44,1-.65,1.52s-.32.77-.48,1.18-.32.81-.49,1.22A70.21,70.21,0,0,0,225,161.73Z" style="fill: rgb(247, 169, 160);"></path><path d="M229.86,147.84a21.39,21.39,0,0,0,8.92,15.59L243.7,154l-9.79-10.71-1.44-1.45S231.29,144.49,229.86,147.84Z" style="fill:#263238"></path><path d="M260.56,141c-1.52,18.63-12.86,19.82-16.87,19.49-3.65-.3-16-1.8-16.44-20.49s8.73-23.87,17.11-23.62S262.08,122.31,260.56,141Z" style="fill: rgb(247, 169, 160);"></path><path d="M228.51,141.51c2,0,7.58-5.38,8.19-15.18,0,0-1.15,8.77-1.88,10s3.1-3,3.7-10.91a32.17,32.17,0,0,0,7.93,4.58c3.68,1.21,6,1.28,6.25,1s-5.14-2.23-6.55-4c0,0,9.73,5.07,14.29,5.63.53.07.85-9.36-6-14.3s-17.5-1.9-20.65.87c0,0-2.18.86-6.26,5.92S226.32,141.54,228.51,141.51Z" style="fill:#263238"></path><path d="M247.06,139.85c-2.73-.81-4.15,4.69-1.63,5.45S249.34,140.53,247.06,139.85Z" style="fill:#263238;opacity:0.4"></path><path d="M256.33,140.39c-2.4-.19-2.68,5.49-.45,5.67S258.35,140.56,256.33,140.39Z" style="fill:#263238;opacity:0.4"></path><path d="M258.11,137.42a11.18,11.18,0,0,0-1.15-.57,2.09,2.09,0,0,0-1.28-.35.67.67,0,0,0-.49.64,1.64,1.64,0,0,0,1,1.29,2.43,2.43,0,0,0,1.71.26A.7.7,0,0,0,258.11,137.42Z" style="fill:#263238"></path><path d="M245.15,136.21a10.13,10.13,0,0,1,1.2-.44,2.13,2.13,0,0,1,1.31-.22.67.67,0,0,1,.42.69,1.63,1.63,0,0,1-1.16,1.17,2.41,2.41,0,0,1-1.73.08A.7.7,0,0,1,245.15,136.21Z" style="fill:#263238"></path><path d="M247.79,141.29s-.1.05-.11.1c-.05,1.26-.32,2.7-1.48,3,0,0,0,.07,0,.07C247.6,144.4,247.94,142.49,247.79,141.29Z" style="fill:#263238"></path><path d="M246.76,139.89c-2-.29-2.46,3.75-.6,4S248.45,140.14,246.76,139.89Z" style="fill:#263238"></path><path d="M245.94,140c-.37.19-.77.55-1.2.55s-.82-.47-1.1-.91c0,0-.06,0-.07,0-.1.78.11,1.61.93,1.81s1.37-.43,1.65-1.19C246.2,140.17,246.1,139.94,245.94,140Z" style="fill:#263238"></path><path d="M254.77,141.74s.09.07.09.12c-.19,1.25-.2,2.71.88,3.26,0,0,0,.08,0,.07C254.37,144.83,254.4,142.89,254.77,141.74Z" style="fill:#263238"></path><path d="M256.05,140.57c2,.09,1.7,4.14-.18,4.06S254.34,140.5,256.05,140.57Z" style="fill:#263238"></path><path d="M256.87,140.9c.3.24.59.66,1,.71s.81-.34,1.12-.74c0,0,.06,0,.06,0,0,.77-.36,1.56-1.12,1.65s-1.13-.62-1.25-1.41C256.62,141,256.75,140.81,256.87,140.9Z" style="fill:#263238"></path><path d="M245.76,151.75c.25.34.48.79.93.9a3.46,3.46,0,0,0,1.39-.11s.07,0,0,.08a1.72,1.72,0,0,1-1.69.42,1.32,1.32,0,0,1-.8-1.25C245.62,151.71,245.72,151.7,245.76,151.75Z" style="fill:#263238"></path><path d="M252.35,147.18s.07,1.9,0,2.79a18.53,18.53,0,0,0-5.17.23c-.4.09-.37-.23.09-.45a7.59,7.59,0,0,1,4.4-.63c.09-.24-.16-2.92,0-2.92a7.8,7.8,0,0,1,2,.66c0-4-.71-7.88-.69-11.83a.12.12,0,0,1,.24,0,64.22,64.22,0,0,1,1.28,12.7C254.44,148.21,252.69,147.37,252.35,147.18Z" style="fill:#263238"></path><path d="M250.18,149.87s-1.06,2-2.41,2.1c-1.55.07-1.86-1.83-.09-2.43A4.69,4.69,0,0,1,250.18,149.87Z" style="fill:#263238"></path><path d="M249.41,151a2.53,2.53,0,0,1-1.64,1,1.1,1.1,0,0,1-1.29-1.06h0s0,0,0-.05C248.14,150.18,249,150.51,249.41,151Z" style="fill:#ff99ba"></path><path d="M227.91,146.06c.84,2.71-6.12-9.74-6.19-11.72s3.14-11.89,11.15-16.5c6.71-3.86,15.37-2,16.88-1.64a12.26,12.26,0,0,1,4.67,2.16s-11.35-2.5-20.65.87C229.29,120.86,224.76,135.9,227.91,146.06Z" style="fill:#8829E2"></path><path d="M229.27,117.18s1.81-6,6.88-8c0,0,1.17,5.24-.22,7.44-.69,1.09-4.69,2.53-5.35,2A9.57,9.57,0,0,1,229.27,117.18Z" style="fill:#8829E2"></path><path d="M229.27,117.17a10.66,10.66,0,0,0,1.31,1.45c.32.26,1.51.11,2.69-.28a13.27,13.27,0,0,0-1.19-2.19c-.61-.83-2.38-1.14-3.19-1.25C229.07,116.18,229.27,117.17,229.27,117.17Z" style="fill:#050400;opacity:0.1"></path><path d="M228.18,118.23s-7.57.8-10.66,3.31c0,0,2.92,3.29,6.81,3.26,1.75,0,5.74-4.25,5.25-5A7.47,7.47,0,0,0,228.18,118.23Z" style="fill:#8829E2"></path><path d="M227.24,120.83A4.44,4.44,0,0,0,229,122c.5-1,.77-1.95.6-2.23a7.79,7.79,0,0,0-1.4-1.53s-.72-.11-1.75-.21A5,5,0,0,0,227.24,120.83Z" style="fill:#050400;opacity:0.1"></path><path d="M227.86,120.08a2.47,2.47,0,1,0,.16-3.5A2.48,2.48,0,0,0,227.86,120.08Z" style="fill:#8829E2"></path><path d="M226.65,146.82a3.8,3.8,0,0,0,.82.36,2.88,2.88,0,0,0,.87.18,2.52,2.52,0,0,0,1.12-.17,3.06,3.06,0,0,0,.78-.42,3.56,3.56,0,0,0,.88-.91l-.19-5.1s-3.05-6.44-5.9-5.44S223.78,145.16,226.65,146.82Z" style="fill: rgb(247, 169, 160);"></path><path d="M225.55,137.84a0,0,0,0,0,0,.08c2,1.23,2.8,3.42,3.24,5.62a1.74,1.74,0,0,0-2.49-.91c-.07,0,0,.13,0,.13a2,2,0,0,1,2,1,8.9,8.9,0,0,1,.72,1.88c.07.21.43.17.4-.07a.07.07,0,0,1,0-.05C229.93,142.81,228.45,138.61,225.55,137.84Z" style="fill:#263238"></path><path d="M227,146.09a.87.87,0,1,0,1.73-.06.87.87,0,0,0-1.73.06Z" style="fill:#fff"></path><path d="M225.51,144.5a.61.61,0,0,0,.63.59.61.61,0,1,0,0-1.22A.61.61,0,0,0,225.51,144.5Z" style="fill:#fff"></path><path d="M215.38,177.59c5,20.33,32.17,59.52,43.69,62.33,13.34,3.25,49.26-11.71,57.66-18.86,3.35-2.85-15.72-24.49-20-22.55-17.94,8.12-32.65,10.82-35.14,9.38-3.82-2.21-20-20.73-30.67-33.24C217.57,158.93,213.13,168.47,215.38,177.59Z" style="fill: rgb(247, 169, 160);"></path><path d="M315.84,221.65c1.85-.82,14.28-11.29,17.82-16a57.3,57.3,0,0,0,8.94-16.37c3.23-9.34,4.58-16.11,3.43-19-1.34-3.37-1.69-3.91-9.66,11.79-4.52,8.88-9.34,10.2-13.59,10.42a69.23,69.23,0,0,0-29.67,8.43S308.7,224.8,315.84,221.65Z" style="fill: rgb(247, 169, 160);"></path><path d="M330.76,156.31,312.6,184.36a1.13,1.13,0,0,0,.63,1.87l15.84,3.63a2.63,2.63,0,0,0,2.57-1.13l18.17-28a1.13,1.13,0,0,0-.64-1.87l-15.83-3.63A2.62,2.62,0,0,0,330.76,156.31Z" style="fill:#263238"></path><path d="M329.34,156.05l-18.17,28.06a1.12,1.12,0,0,0,.63,1.86l15.84,3.63a2.62,2.62,0,0,0,2.57-1.12l18.17-28.06a1.12,1.12,0,0,0-.63-1.86l-15.84-3.64A2.62,2.62,0,0,0,329.34,156.05Z" style="fill:#37474f"></path><path d="M329.43,157.69l-16.66,25.72c-.51.79-.28,1.57.51,1.75l14.17,3.26a2.45,2.45,0,0,0,2.36-1.1l16.66-25.72c1-1.61.62-2.11-.17-2.29l-2.84-.65a.6.6,0,0,0-.55.32l-.06.09c-.32.5-.62.43-1,.35l-6.56-1.51c-.37-.09-.66-.15-.34-.65l.06-.1c.14-.21.11-.41,0-.45l-2.84-.65C331.34,155.88,330.38,156.22,329.43,157.69Z" style="fill:#fff"></path><path d="M338.09,157.83l1.79.41a.17.17,0,0,0,.18-.07h0A.08.08,0,0,0,340,158l-1.79-.41a.19.19,0,0,0-.18.08h0A.08.08,0,0,0,338.09,157.83Z" style="fill:#fff"></path><polygon points="322.12 173.41 334.15 176.18 341.3 165.15 329.26 162.38 322.12 173.41" style="fill:#8829E2"></polygon><polygon points="325.95 176.38 332.98 177.99 333.4 177.34 326.38 175.73 325.95 176.38" style="fill:#a6a6a6"></polygon><polygon points="323.97 177.15 332.29 179.05 332.5 178.73 324.18 176.82 323.97 177.15" style="fill:#a6a6a6"></polygon><polygon points="323.59 177.74 331.91 179.65 332.12 179.32 323.8 177.41 323.59 177.74" style="fill:#a6a6a6"></polygon><polygon points="323.2 178.33 331.52 180.24 331.73 179.92 323.41 178.01 323.2 178.33" style="fill:#a6a6a6"></polygon><polygon points="341.97 161.44 343.47 161.79 343.64 161.52 342.14 161.18 341.97 161.44" style="fill:#a6a6a6"></polygon><polygon points="341.65 161.93 343.15 162.28 343.33 162.01 341.83 161.67 341.65 161.93" style="fill:#a6a6a6"></polygon><polygon points="341.34 162.42 342.84 162.77 343.01 162.5 341.51 162.16 341.34 162.42" style="fill:#a6a6a6"></polygon><path d="M321.2,175.08a.77.77,0,0,0,.18.41,2.24,2.24,0,0,0,.61-.23c.38-.21.58-.57.29-.64s-.49.23-.49.23.15-.31-.08-.36S321.15,174.77,321.2,175.08Z" style="fill:#8829E2"></path><polygon points="317.17 183.11 326.88 185.34 328.53 182.79 318.82 180.56 317.17 183.11" style="fill:#8829E2"></polygon><path d="M324.9,192.22c-4.38.38,9.22-9.54,9.07-14.54s-4.89-3.08-8.52,0c-12.59,10.74-22.66,11-28.72,20.82S324.9,192.22,324.9,192.22Z" style="fill: rgb(247, 169, 160);"></path><path d="M254.45,201.34c1.19,1,2.33,2.1,3.48,3.16a23.7,23.7,0,0,0,3.34,2.83A7.07,7.07,0,0,0,266,208c1.44-.17,2.87-.44,4.29-.75A129,129,0,0,0,287.38,202a86.24,86.24,0,0,0,9.22-3.66l-.35.36A21.27,21.27,0,0,1,299,195a24.81,24.81,0,0,1,4.08-3.57,44,44,0,0,1,4.93-3c.89-.47,1.78-.93,2.69-1.36l1.36-.65c.4-.2,1.33-.48,1.59-.82-.1.14-.29-.07-.16-.16l.07,0a.1.1,0,0,1,.14,0l.07.07a.09.09,0,0,1,0,.1c-.15.23-.46.33-.7.47l-1.27.8c-.78.49-1.56,1-2.35,1.46-1.78,1.08-3.57,2.18-5.27,3.38a41.53,41.53,0,0,0-4.15,3.34c-.66.61-1.27,1.28-1.91,1.92a16.61,16.61,0,0,0-1.6,2.05c-.05.06-5.48,2.55-8.31,3.74s-5.74,2.23-8.68,3.15-5.9,1.74-8.9,2.43a35.93,35.93,0,0,1-4.62.78,7.47,7.47,0,0,1-4.19-.39,15.71,15.71,0,0,1-3.43-3.14c-1.37-1.36-2.76-2.71-4.08-4.12A.08.08,0,0,1,254.45,201.34Z" style="fill:#263238"></path><path d="M254.76,200.59l-21.57,17.22s-15.42-22.41-18.64-39,5.35-18.16,19.1-2.18C247.09,192.21,254.76,200.59,254.76,200.59Z" style="fill:#8829E2"></path><path d="M240.32,184.15c2.41,2.49,4.72,5.13,7,7.74,1.11,1.27,2.21,2.55,3.28,3.85l1.72,2.06a17.82,17.82,0,0,0,1.95,2.21c.13.11-.07.29-.16.16a33.59,33.59,0,0,0-3.53-3.83c-1.23-1.31-2.43-2.62-3.62-4-2.31-2.63-4.62-5.33-6.73-8.14C240.17,184.17,240.26,184.1,240.32,184.15Z" style="fill:#263238"></path><path d="M218.59,194.2a18.14,18.14,0,0,0,2,2.38c.29.29.56.59.83.89-1.17-2.35-2.29-4.72-3.28-7.13,0-.05.05-.07.07,0,2.62,4.63,5,9.4,7.62,14s5,9.61,7.91,14.19a.11.11,0,1,1-.19.12c-2.76-4.63-5.78-9.08-8.32-13.85-1-1.9-2-3.82-3-5.75a8.44,8.44,0,0,1-.93-1,14.39,14.39,0,0,1-1-1.22c-.61-.86-1.24-1.7-1.89-2.53C218.32,194.23,218.5,194.08,218.59,194.2Z" style="fill:#263238"></path><path d="M260.33,203.07l-5.75-5.58-24.66,19.73,4.49,6.95Z" style="fill:#8829E2"></path><path d="M260.33,203.07l-5.75-5.58-24.66,19.73,4.49,6.95Z" style="opacity:0.1"></path><path d="M232.93,214.6c3.07-2.68,6.35-5.13,9.55-7.66s6.57-4.84,9.68-7.48c.12-.09.26.09.15.18-3.16,2.59-6.1,5.41-9.32,7.94s-6.46,5-9.9,7.21C233,214.87,232.82,214.7,232.93,214.6Z" style="fill:#263238"></path><path d="M238.68,220.7c-1.55,1-3,2.1-4.48,3.21l.49.08c-1.45-2.35-3-4.65-4.61-6.88l0,.26c.59-.53,1.17-1.07,1.73-1.64-.67.43-1.33.88-2,1.33l-.13.1.09.17c1.35,2.41,2.83,4.74,4.38,7l.21.31.28-.23C236,223.23,237.38,222,238.68,220.7Z" style="fill:#263238"></path></g></svg>